<svg xmlns="http://www.w3.org/2000/svg" width="27" height="20" viewBox="0 0 27 20" fill="none">
  <g clip-path="url(#clip0_67_1861)">
    <path d="M0 0H26.6667V20H0V0Z" fill="#00ABC2"/>
    <path d="M14.4084 11.092C15.8951 11.092 17.1004 9.88675 17.1004 8.4C17.1004 6.91325 15.8951 5.708 14.4084 5.708C12.9216 5.708 11.7164 6.91325 11.7164 8.4C11.7164 9.88675 12.9216 11.092 14.4084 11.092Z" fill="#FFEC2D"/>
    <path d="M14.4084 5.342C14.5684 5.34 14.6284 5.24 14.6284 5.12C14.6284 4.96 14.4084 4.198 14.4084 4.198C14.4084 4.198 14.1884 4.96 14.1884 5.12C14.1884 5.24 14.2484 5.342 14.4084 5.342Z" fill="#FFEC2D"/>
    <path d="M17.4664 8.4C17.4684 8.56 17.5684 8.62 17.6884 8.62C17.8484 8.62 18.6104 8.4 18.6104 8.4C18.6104 8.4 17.8484 8.18 17.6884 8.18C17.5684 8.18 17.4664 8.24 17.4664 8.4Z" fill="#FFEC2D"/>
    <path d="M14.4084 11.458C14.2484 11.46 14.1884 11.56 14.1884 11.68C14.1884 11.84 14.4084 12.602 14.4084 12.602C14.4084 12.602 14.6284 11.84 14.6284 11.68C14.6284 11.56 14.5684 11.458 14.4084 11.458Z" fill="#FFEC2D"/>
    <path d="M11.3504 8.4C11.3484 8.24 11.2484 8.18 11.1284 8.18C10.9684 8.18 10.2064 8.4 10.2064 8.4C10.2064 8.4 10.9684 8.62 11.1284 8.62C11.2484 8.62 11.3504 8.56 11.3504 8.4Z" fill="#FFEC2D"/>
    <path d="M15.5786 5.57478C15.7272 5.63416 15.8209 5.56473 15.8668 5.45386C15.928 5.30604 16.0164 4.51786 16.0164 4.51786C16.0164 4.51786 15.5215 5.13766 15.4603 5.28548C15.4144 5.39635 15.4308 5.51355 15.5786 5.57478Z" fill="#FFEC2D"/>
    <path d="M17.2335 9.57024C17.1741 9.71883 17.2436 9.81253 17.3544 9.85845C17.5023 9.91968 18.2904 10.008 18.2904 10.008C18.2904 10.008 17.6706 9.51317 17.5228 9.45194C17.412 9.40602 17.2948 9.42242 17.2335 9.57024Z" fill="#FFEC2D"/>
    <path d="M13.2381 11.2252C13.0895 11.1658 12.9958 11.2353 12.9499 11.3461C12.8886 11.494 12.8003 12.2821 12.8003 12.2821C12.8003 12.2821 13.2951 11.6623 13.3564 11.5145C13.4023 11.4036 13.3859 11.2864 13.2381 11.2252Z" fill="#FFEC2D"/>
    <path d="M11.5831 7.22975C11.6425 7.08117 11.5731 6.98747 11.4622 6.94154C11.3144 6.88031 10.5262 6.79196 10.5262 6.79196C10.5262 6.79196 11.146 7.28682 11.2938 7.34805C11.4047 7.39397 11.5219 7.37757 11.5831 7.22975Z" fill="#FFEC2D"/>
    <path d="M16.5706 6.23767C16.6852 6.34939 16.7983 6.32111 16.8832 6.23625C16.9963 6.12312 17.3796 5.42874 17.3796 5.42874C17.3796 5.42874 16.6852 5.81199 16.572 5.92513C16.4872 6.00998 16.4575 6.12453 16.5706 6.23767Z" fill="#FFEC2D"/>
    <path d="M16.5707 10.5623C16.4589 10.6769 16.4872 10.79 16.5721 10.8749C16.6852 10.988 17.3796 11.3713 17.3796 11.3713C17.3796 11.3713 16.9963 10.6769 16.8832 10.5637C16.7984 10.4789 16.6838 10.4492 16.5707 10.5623Z" fill="#FFEC2D"/>
    <path d="M12.246 10.5623C12.1315 10.4506 12.0183 10.4789 11.9335 10.5637C11.8203 10.6769 11.4371 11.3713 11.4371 11.3713C11.4371 11.3713 12.1315 10.988 12.2446 10.8749C12.3295 10.79 12.3592 10.6755 12.246 10.5623Z" fill="#FFEC2D"/>
    <path d="M12.246 6.23767C12.3577 6.12312 12.3294 6.00998 12.2446 5.92513C12.1314 5.81199 11.4371 5.42874 11.4371 5.42874C11.4371 5.42874 11.8203 6.12312 11.9334 6.23625C12.0183 6.32111 12.1329 6.3508 12.246 6.23767Z" fill="#FFEC2D"/>
    <path d="M17.2336 7.22975C17.2966 7.37681 17.412 7.39397 17.5229 7.34805C17.6707 7.28682 18.2905 6.79196 18.2905 6.79196C18.2905 6.79196 17.5023 6.88031 17.3545 6.94154C17.2436 6.98746 17.1723 7.08193 17.2336 7.22975Z" fill="#FFEC2D"/>
    <path d="M15.5786 11.2252C15.4315 11.2883 15.4143 11.4036 15.4603 11.5145C15.5215 11.6623 16.0164 12.2821 16.0164 12.2821C16.0164 12.2821 15.928 11.494 15.8668 11.3461C15.8208 11.2353 15.7264 11.164 15.5786 11.2252Z" fill="#FFEC2D"/>
    <path d="M11.5831 9.57024C11.52 9.42319 11.4047 9.40602 11.2938 9.45195C11.146 9.51317 10.5262 10.008 10.5262 10.008C10.5262 10.008 11.3143 9.91968 11.4622 9.85845C11.573 9.81253 11.6443 9.71806 11.5831 9.57024Z" fill="#FFEC2D"/>
    <path d="M13.2381 5.57478C13.3851 5.5117 13.4023 5.39635 13.3564 5.28548C13.2952 5.13766 12.8003 4.51786 12.8003 4.51786C12.8003 4.51786 12.8887 5.30604 12.9499 5.45386C12.9958 5.56473 13.0903 5.636 13.2381 5.57478Z" fill="#FFEC2D"/>
    <path d="M15.0076 5.40128C15.1649 5.43067 15.2433 5.34436 15.2668 5.22669C15.2982 5.06979 15.2317 4.27946 15.2317 4.27946C15.2317 4.27946 14.8667 4.98358 14.8353 5.14047C14.8118 5.25815 14.8507 5.36993 15.0076 5.40128Z" fill="#FFEC2D"/>
    <path d="M17.4071 8.9992C17.3777 9.15649 17.464 9.23492 17.5817 9.25844C17.7386 9.28979 18.5289 9.22336 18.5289 9.22336C18.5289 9.22336 17.8248 8.85832 17.6679 8.82697C17.5502 8.80345 17.4384 8.8423 17.4071 8.9992Z" fill="#FFEC2D"/>
    <path d="M13.8092 11.3987C13.6519 11.3693 13.5735 11.4556 13.55 11.5733C13.5186 11.7302 13.585 12.5205 13.585 12.5205C13.585 12.5205 13.9501 11.8164 13.9814 11.6595C14.005 11.5418 13.9661 11.4301 13.8092 11.3987Z" fill="#FFEC2D"/>
    <path d="M11.4097 7.8008C11.4391 7.6435 11.3528 7.56507 11.2351 7.54156C11.0782 7.51021 10.2879 7.57663 10.2879 7.57663C10.2879 7.57663 10.992 7.94168 11.1489 7.97303C11.2666 7.99654 11.3783 7.95769 11.4097 7.8008Z" fill="#FFEC2D"/>
    <path d="M16.1095 5.85885C16.2436 5.94619 16.3491 5.89647 16.4158 5.79675C16.5048 5.6638 16.7459 4.9082 16.7459 4.9082C16.7459 4.9082 16.1392 5.41903 16.0502 5.55198C15.9834 5.6517 15.9766 5.76984 16.1095 5.85885Z" fill="#FFEC2D"/>
    <path d="M16.9496 10.1012C16.8622 10.2352 16.9119 10.3407 17.0116 10.4075C17.1446 10.4965 17.9002 10.7376 17.9002 10.7376C17.9002 10.7376 17.3894 10.1308 17.2564 10.0418C17.1567 9.97508 17.0386 9.96819 16.9496 10.1012Z" fill="#FFEC2D"/>
    <path d="M12.7072 10.9411C12.5732 10.8538 12.4677 10.9035 12.4009 11.0032C12.3119 11.1362 12.0708 11.8918 12.0708 11.8918C12.0708 11.8918 12.6776 11.381 12.7666 11.248C12.8333 11.1483 12.8402 11.0302 12.7072 10.9411Z" fill="#FFEC2D"/>
    <path d="M11.8672 6.69885C11.9546 6.56478 11.9048 6.45929 11.8051 6.39253C11.6722 6.30353 10.9166 6.06245 10.9166 6.06245C10.9166 6.06245 11.4274 6.66916 11.5604 6.75817C11.6601 6.82492 11.7782 6.83181 11.8672 6.69885Z" fill="#FFEC2D"/>
    <path d="M16.9525 6.70328C17.043 6.83528 17.1595 6.82972 17.2593 6.76314C17.3924 6.67436 17.9043 6.06854 17.9043 6.06854C17.9043 6.06854 17.1483 6.3083 17.0152 6.39708C16.9153 6.46366 16.8638 6.57017 16.9525 6.70328Z" fill="#FFEC2D"/>
    <path d="M16.1051 10.9441C15.9731 11.0346 15.9787 11.151 16.0453 11.2509C16.1341 11.384 16.7399 11.8959 16.7399 11.8959C16.7399 11.8959 16.5001 11.1399 16.4113 11.0067C16.3448 10.9069 16.2383 10.8553 16.1051 10.9441Z" fill="#FFEC2D"/>
    <path d="M11.8643 10.0967C11.7739 9.96471 11.6574 9.97028 11.5575 10.0369C11.4244 10.1256 10.9125 10.7315 10.9125 10.7315C10.9125 10.7315 11.6686 10.4917 11.8017 10.4029C11.9015 10.3363 11.9531 10.2298 11.8643 10.0967Z" fill="#FFEC2D"/>
    <path d="M12.7117 5.85588C12.8437 5.76544 12.8381 5.64896 12.7715 5.54912C12.6828 5.41601 12.077 4.90413 12.077 4.90413C12.077 4.90413 12.3167 5.66014 12.4055 5.79325C12.4721 5.89309 12.5786 5.94466 12.7117 5.85588Z" fill="#FFEC2D"/>
    <path d="M17.4081 7.80603C17.4412 7.9626 17.5509 8.00203 17.6686 7.97872C17.8256 7.94764 18.5303 7.58383 18.5303 7.58383C18.5303 7.58383 17.7401 7.51602 17.5832 7.5471C17.4655 7.57041 17.3771 7.64908 17.4081 7.80603Z" fill="#FFEC2D"/>
    <path d="M15.0024 11.3998C14.8458 11.4328 14.8064 11.5425 14.8297 11.6603C14.8607 11.8172 15.2246 12.522 15.2246 12.522C15.2246 12.522 15.2924 11.7318 15.2613 11.5748C15.238 11.4571 15.1593 11.3687 15.0024 11.3998Z" fill="#FFEC2D"/>
    <path d="M11.4086 8.99397C11.3755 8.83741 11.2658 8.79797 11.1481 8.82128C10.9911 8.85236 10.2864 9.21617 10.2864 9.21617C10.2864 9.21617 11.0766 9.28398 11.2335 9.2529C11.3513 9.22959 11.4397 9.15092 11.4086 8.99397Z" fill="#FFEC2D"/>
    <path d="M13.8144 5.40024C13.971 5.3672 14.0104 5.25745 13.9871 5.13974C13.956 4.98278 13.5922 4.27803 13.5922 4.27803C13.5922 4.27803 13.5244 5.06825 13.5555 5.2252C13.5788 5.34291 13.6575 5.43132 13.8144 5.40024Z" fill="#FFEC2D"/>
    <path d="M14.316 13.1C14.246 13.226 14.204 13.372 14.116 13.486C13.844 13.24 13.452 13.246 13.108 13.232C12.824 13.216 12.516 13.19 12.296 12.988C12.066 12.798 11.876 12.554 11.62 12.4C11.3795 12.3482 11.1534 12.2437 10.958 12.094C10.554 11.764 10.322 11.274 9.92604 10.934C9.85204 10.862 9.76205 10.804 9.67805 10.742C9.59805 10.762 9.63404 10.934 9.53604 10.846C9.48204 10.806 9.34804 10.804 9.33604 10.858C9.45604 11.018 9.57804 11.198 9.59604 11.402C9.51204 11.41 9.36604 11.384 9.32604 11.414C9.43595 11.5789 9.57407 11.7231 9.73405 11.84C9.65805 11.852 9.50805 11.846 9.47805 11.876C9.62778 12.0194 9.81265 12.1208 10.014 12.17C10.054 12.226 9.95204 12.334 10.04 12.382C10.09 12.402 10.258 12.438 10.142 12.496C10.062 12.548 10.092 12.674 10.194 12.67C10.258 12.704 10.402 12.71 10.414 12.77C10.356 12.826 10.18 12.894 10.33 12.95C10.4715 13.0302 10.6297 13.076 10.792 13.084C10.712 13.152 10.612 13.19 10.53 13.254C10.9 13.472 11.31 13.614 11.718 13.754C11.878 13.806 12.044 13.856 12.212 13.888C11.724 13.86 11.252 13.716 10.808 13.518C10.578 13.418 10.348 13.32 10.112 13.234C10.214 13.18 10.334 13.166 10.442 13.12C10.218 13.076 9.97604 13.06 9.78204 12.94C9.81004 12.884 9.92204 12.882 9.98604 12.854C10.106 12.826 10.178 12.794 10.012 12.782C9.84404 12.736 9.65204 12.756 9.50204 12.656C9.51204 12.596 9.66804 12.616 9.73004 12.59C9.81004 12.576 9.89804 12.564 9.96204 12.51C9.70204 12.404 9.36205 12.48 9.15805 12.25C9.11205 12.162 9.30405 12.232 9.35805 12.218C9.49805 12.218 9.64804 12.262 9.78204 12.206C9.40204 12.04 8.99605 11.886 8.70805 11.578C8.67605 11.528 8.58005 11.392 8.65805 11.376C8.88205 11.406 9.04404 11.65 9.28604 11.612C9.31804 11.57 9.14604 11.5 9.10204 11.438C8.74025 11.1473 8.42466 10.8034 8.16604 10.418C8.15004 10.284 8.35604 10.264 8.41004 10.366C8.67804 10.626 8.92004 10.926 9.25405 11.102C9.37405 11.16 9.18604 11.034 9.16204 10.988C8.84438 10.6358 8.56978 10.2471 8.34404 9.83C8.30404 9.754 8.24205 9.616 8.35805 9.576C8.47205 9.518 8.58804 9.596 8.64604 9.696C8.87204 9.982 9.04004 10.322 9.32204 10.56C9.08204 10.094 8.82405 9.6 8.81805 9.064C8.82405 8.96 8.83004 8.804 8.97204 8.806C9.09204 8.788 9.07204 8.94 9.11204 9.012C9.22804 9.408 9.27804 9.836 9.51204 10.184C9.46204 9.892 9.38404 9.59 9.43604 9.292C9.44804 9.192 9.55604 9.164 9.63004 9.224C9.68804 9.364 9.70004 9.542 9.75204 9.694C10.0637 10.7293 10.72 11.627 11.612 12.238C12.3424 12.7378 13.1947 13.0302 14.078 13.084C14.158 13.092 14.238 13.094 14.316 13.098M17.044 14.92C16.9 15.008 16.788 14.852 16.668 14.806C16.58 14.854 16.572 15.01 16.492 15.086C16.396 15.196 16.276 15.054 16.286 14.946C16.17 15.044 16.112 15.266 15.926 15.234C15.836 15.162 15.77 15.01 15.702 15.184C15.648 15.268 15.502 15.388 15.424 15.26C15.4 15.148 15.344 15.016 15.284 15.194C15.24 15.322 15.104 15.414 14.976 15.358C14.904 15.3 15.032 15.084 14.942 15.098C14.806 15.19 14.726 15.412 14.536 15.394C14.462 15.314 14.582 15.172 14.5 15.08C14.406 15.202 14.3 15.382 14.134 15.394C14.054 15.33 14.138 15.144 14.086 15.118C13.918 15.218 13.738 15.4 13.526 15.344C13.608 15.024 13.956 14.914 14.246 14.89C14.748 14.828 15.276 14.942 15.76 14.76C15.838 14.712 16.026 14.646 15.96 14.536C15.9 14.448 16.114 14.482 16.134 14.38C16.122 14.252 16.234 14.27 16.342 14.26C16.83 14.238 17.312 14.34 17.798 14.358C17.834 14.594 17.572 14.76 17.358 14.688C17.258 14.704 17.108 14.456 17.138 14.636C17.118 14.732 17.13 14.856 17.044 14.92ZM12.896 14.436C13.008 14.538 13.088 14.416 13.194 14.37C13.5402 14.2345 13.8654 14.0507 14.16 13.824C14.344 13.672 14.504 13.474 14.752 13.424C15.236 13.278 15.75 13.296 16.234 13.16C16.604 12.656 17.23 12.474 17.756 12.184C17.874 12.148 17.92 12.05 17.956 11.944C18.156 11.626 18.43 11.346 18.754 11.154C18.907 11.0637 19.0872 11.031 19.262 11.062C19.2379 11.266 19.1406 11.4544 18.988 11.592C19.106 11.59 19.208 11.516 19.324 11.52C19.364 11.732 19.136 11.842 19.014 11.974C19.082 11.99 19.342 12.01 19.2 12.078C19.02 12.202 18.814 12.288 18.648 12.434C18.802 12.462 18.82 12.494 18.664 12.55C18.578 12.606 18.416 12.626 18.4 12.738C18.516 12.81 18.348 12.878 18.282 12.902C18.158 12.932 18.026 12.986 18.192 13.082C18.13 13.176 17.994 13.196 17.884 13.186C17.918 13.294 17.966 13.414 17.828 13.462C17.5185 13.7067 17.1477 13.8617 16.756 13.91C17.246 13.946 17.752 13.856 18.17 13.59C18.226 13.524 18.516 13.452 18.354 13.398C18.278 13.366 18.114 13.33 18.102 13.272C18.33 13.132 18.616 13.182 18.86 13.1C18.866 13.02 18.674 13.042 18.602 13.024C18.432 13.01 18.442 12.966 18.606 12.95C18.814 12.894 19.05 12.884 19.226 12.75C19.084 12.682 18.904 12.74 18.752 12.686C19.01 12.574 19.314 12.562 19.546 12.392C19.652 12.274 19.41 12.312 19.34 12.314C19.198 12.34 19.132 12.27 19.294 12.212C19.572 12.006 19.922 11.874 20.118 11.578C20.164 11.512 20.226 11.312 20.078 11.382C19.886 11.448 19.716 11.664 19.494 11.598C19.93 11.26 20.342 10.878 20.64 10.412C20.656 10.276 20.444 10.262 20.39 10.368C20.11 10.636 19.858 10.954 19.5 11.124C19.8375 10.7866 20.1305 10.4075 20.372 9.996C20.426 9.876 20.568 9.73 20.492 9.596C20.366 9.492 20.21 9.588 20.146 9.71C19.928 9.994 19.764 10.324 19.486 10.556C19.728 10.09 19.982 9.592 19.986 9.056C19.986 8.944 19.966 8.78 19.814 8.802C19.694 8.822 19.724 9.002 19.674 9.092C19.566 9.46 19.514 9.858 19.294 10.178C19.344 9.88 19.43 9.568 19.364 9.268C19.332 9.132 19.114 9.19 19.144 9.324C18.884 10.642 17.998 11.794 16.844 12.46C16.314 12.76 15.724 12.952 15.12 13.04C14.96 13.074 14.784 13.054 14.63 13.11C14.254 13.396 14.028 13.878 13.554 14.028C13.34 14.134 13.064 14.156 12.912 14.352C12.8997 14.3782 12.8942 14.4071 12.896 14.436ZM13.93 14.23C13.858 14.234 13.788 14.242 13.718 14.264C13.624 14.278 13.534 14.31 13.442 14.324L13.404 14.332L13.342 14.338C13.3501 14.3715 13.3501 14.4065 13.342 14.44C13.3356 14.4551 13.326 14.4687 13.314 14.48C13.302 14.496 13.288 14.508 13.27 14.516C13.2538 14.524 13.2361 14.5287 13.218 14.53C13.2 14.53 13.182 14.53 13.164 14.522C13.146 14.516 13.13 14.506 13.114 14.492L13.058 14.502H13.006L12.95 14.482C12.932 14.4749 12.9146 14.4662 12.898 14.456C12.83 14.496 12.754 14.534 12.712 14.604C12.6925 14.636 12.6815 14.6725 12.68 14.71C12.676 14.758 12.688 14.806 12.708 14.85C12.716 14.862 12.722 14.804 12.744 14.796C12.782 14.764 12.83 14.742 12.878 14.73C12.918 14.71 12.912 14.73 12.896 14.762C12.892 14.78 12.87 14.842 12.9 14.81C13.0383 14.7583 13.1844 14.7306 13.332 14.728C13.544 14.706 13.756 14.7 13.968 14.698L14.568 14.71C14.664 14.714 14.76 14.734 14.854 14.718C14.876 14.712 14.912 14.712 14.926 14.698C14.882 14.674 14.832 14.672 14.786 14.666H14.404C14.298 14.656 14.188 14.654 14.088 14.614C14.06 14.604 14.036 14.578 14.01 14.606C13.972 14.6196 13.9323 14.6283 13.892 14.632C13.822 14.636 13.752 14.622 13.688 14.596C13.734 14.532 13.79 14.476 13.842 14.416L13.718 14.39C13.792 14.34 13.858 14.282 13.93 14.23Z" fill="#FFEC2D"/>
    <path d="M13.2 14.466C13.2265 14.466 13.248 14.4445 13.248 14.418C13.248 14.3915 13.2265 14.37 13.2 14.37C13.1735 14.37 13.152 14.3915 13.152 14.418C13.152 14.4445 13.1735 14.466 13.2 14.466Z" fill="#FFEC2D"/>
    <path d="M13.196 14.43C13.2071 14.43 13.216 14.421 13.216 14.41C13.216 14.399 13.2071 14.39 13.196 14.39C13.185 14.39 13.176 14.399 13.176 14.41C13.176 14.421 13.185 14.43 13.196 14.43Z" fill="#FFEC2D" stroke="#FFEC2D" stroke-width="0.024"/>
    <path d="M2.39999 1.46C2.39999 1.46 2.20799 1.296 2.14199 1.378C2.03799 1.508 2.46599 2.158 2.46599 2.386C2.46599 2.762 2.21399 2.864 1.90599 2.916C1.69799 2.952 1.35999 2.902 1.35999 2.902C1.42399 2.816 1.46599 2.79 1.57199 2.784C1.45199 2.724 1.33199 2.588 1.33199 2.378C1.33199 2.056 1.46399 1.922 1.46399 1.558C1.46399 1.36 1.29999 1.1 1.29999 1.1C1.59199 1.13 1.73599 1.4 1.65399 1.616C1.6765 1.62048 1.69976 1.61935 1.72173 1.61273C1.7437 1.6061 1.76371 1.59417 1.77999 1.578C1.79999 1.638 1.76799 1.708 1.72199 1.768C1.75799 1.788 1.78599 1.776 1.84199 1.764C1.83799 1.824 1.80199 1.892 1.70999 1.954C1.97399 1.886 2.13399 2.068 2.13399 2.26C2.13399 2.406 2.03399 2.51 1.93399 2.51C1.90199 2.51 1.85399 2.496 1.82799 2.476C1.80799 2.516 1.81999 2.57 1.83799 2.61C1.76599 2.59 1.71799 2.546 1.75199 2.456C1.69599 2.452 1.65199 2.432 1.62199 2.396C1.65199 2.356 1.69799 2.336 1.75199 2.336C1.71199 2.252 1.75799 2.206 1.82399 2.168C1.82399 2.168 1.78199 2.336 1.88799 2.336C1.93599 2.336 1.97999 2.322 1.97999 2.25C1.97999 2.188 1.92599 2.102 1.79999 2.108C1.67599 2.114 1.57399 2.194 1.57399 2.394C1.57399 2.578 1.72399 2.67 1.91999 2.674C2.09599 2.682 2.22999 2.586 2.22999 2.404C2.22999 2.16 1.87999 1.608 1.87999 1.392C1.87999 1.23 2.02399 1.138 2.16799 1.138C2.35199 1.138 2.50799 1.322 2.50799 1.322L2.39999 1.458V1.46Z" fill="#FFEC2D"/>
    <path d="M2.44001 5.842C2.44001 6.248 2.07601 6.456 1.79001 6.456C1.40601 6.456 1.20001 6.226 1.20001 5.924C1.20001 5.754 1.23201 5.646 1.31001 5.484L2.19401 3.65C2.22604 3.57285 2.23973 3.48933 2.23401 3.406C2.23401 3.242 2.07401 3.108 1.90801 3.106C1.75601 3.1 1.58801 3.246 1.58801 3.412C1.58801 3.614 1.69401 3.704 1.80201 3.704C1.93401 3.704 1.98601 3.65 1.98601 3.556C1.98601 3.492 1.95601 3.464 1.91001 3.464C1.79601 3.464 1.83001 3.616 1.83001 3.616C1.81496 3.61321 1.80071 3.60714 1.78827 3.59821C1.77584 3.58928 1.76552 3.57772 1.75807 3.56435C1.75062 3.55098 1.74622 3.53612 1.74517 3.52085C1.74412 3.50558 1.74646 3.49026 1.75201 3.476C1.7092 3.4664 1.67063 3.44325 1.64201 3.41C1.67201 3.38 1.70801 3.358 1.75201 3.35C1.72601 3.262 1.76201 3.22 1.83801 3.2C1.82434 3.23006 1.82083 3.26376 1.82801 3.296C1.94801 3.26 2.13401 3.316 2.13401 3.524C2.13401 3.732 1.99001 3.906 1.72001 3.864C1.78401 3.894 1.81601 3.956 1.82401 4.026C1.77401 4.006 1.72001 4.006 1.72001 4.006C1.75201 4.06 1.79601 4.106 1.79401 4.218C1.74401 4.194 1.69601 4.152 1.63401 4.178C1.73401 4.378 1.61001 4.65 1.29401 4.714C1.41001 4.578 1.46601 4.434 1.46601 4.288C1.46601 3.818 1.33601 3.74 1.33601 3.412C1.33807 3.33593 1.35819 3.26144 1.3947 3.19467C1.43121 3.1279 1.48308 3.07077 1.54601 3.028V3.034C1.50731 3.02605 1.47073 3.01 1.43867 2.9869C1.40661 2.96381 1.37981 2.93419 1.36001 2.9C1.58281 2.83859 1.81833 2.84067 2.04001 2.906C2.11416 2.91649 2.18501 2.9435 2.24732 2.98504C2.30963 3.02658 2.36181 3.08159 2.40001 3.146C2.43994 3.23711 2.46056 3.33552 2.46056 3.435C2.46056 3.53448 2.43994 3.63288 2.40001 3.724C2.27401 3.984 1.68601 5.236 1.50201 5.628C1.46201 5.712 1.44001 5.8 1.44001 5.896C1.44001 6.136 1.66001 6.22 1.78401 6.22C1.93401 6.22 2.08801 6.106 2.08801 5.964C2.08801 5.874 2.03801 5.818 1.96801 5.818C1.79801 5.818 1.80801 5.962 1.84201 6.054C1.73601 6.006 1.67601 5.922 1.69201 5.834C1.62638 5.82298 1.56682 5.78894 1.52401 5.738C1.56401 5.686 1.61601 5.646 1.69201 5.644C1.65801 5.506 1.75201 5.448 1.84201 5.416C1.81401 5.516 1.79401 5.634 1.96801 5.634C2.09401 5.634 2.19201 5.654 2.25001 5.738L2.26401 5.198C2.27201 5.036 2.04801 5.038 1.90401 5.088C1.95801 4.902 2.06801 4.8 2.32401 4.826C2.28479 4.81092 2.25132 4.78386 2.22834 4.74868C2.20536 4.7135 2.19405 4.67197 2.19601 4.63C2.19601 4.478 2.32001 4.31 2.40001 4.26L2.44001 5.84V5.842Z" fill="#FFEC2D"/>
    <path d="M2.44001 7.058C2.44001 6.652 2.07601 6.444 1.79001 6.444C1.40601 6.444 1.20001 6.674 1.20001 6.976C1.20001 7.146 1.23201 7.254 1.31001 7.416L2.19401 9.25C2.22604 9.32715 2.23973 9.41067 2.23401 9.494C2.23401 9.658 2.07401 9.792 1.90801 9.794C1.75601 9.8 1.58801 9.654 1.58801 9.488C1.58801 9.286 1.69401 9.196 1.80201 9.196C1.93401 9.196 1.98601 9.25 1.98601 9.344C1.98601 9.408 1.95601 9.436 1.91001 9.436C1.79601 9.436 1.83001 9.284 1.83001 9.284C1.81496 9.28678 1.80071 9.29286 1.78827 9.30179C1.77584 9.31071 1.76552 9.32228 1.75807 9.33565C1.75062 9.34902 1.74622 9.36388 1.74517 9.37915C1.74412 9.39442 1.74646 9.40974 1.75201 9.424C1.7092 9.4336 1.67063 9.45674 1.64201 9.49C1.67201 9.52 1.70801 9.542 1.75201 9.55C1.72601 9.638 1.76201 9.68 1.83801 9.7C1.82434 9.66994 1.82083 9.63624 1.82801 9.604C1.94801 9.64 2.13401 9.584 2.13401 9.376C2.13401 9.168 1.99001 8.994 1.72001 9.036C1.78401 9.006 1.81601 8.944 1.82401 8.874C1.77401 8.894 1.72001 8.894 1.72001 8.894C1.75201 8.84 1.79601 8.794 1.79401 8.682C1.74401 8.706 1.69601 8.748 1.63401 8.722C1.73401 8.522 1.61001 8.25 1.29401 8.186C1.41001 8.322 1.46601 8.466 1.46601 8.612C1.46601 9.082 1.33601 9.16 1.33601 9.488C1.33807 9.56407 1.35819 9.63856 1.3947 9.70533C1.43121 9.7721 1.48308 9.82922 1.54601 9.872V9.866C1.50731 9.87395 1.47073 9.89 1.43867 9.91309C1.40661 9.93619 1.37981 9.96581 1.36001 10C1.58281 10.0614 1.81833 10.0593 2.04001 9.994C2.11416 9.98351 2.18501 9.9565 2.24732 9.91496C2.30963 9.87342 2.36181 9.81841 2.40001 9.754C2.43994 9.66288 2.46056 9.56448 2.46056 9.465C2.46056 9.36552 2.43994 9.26712 2.40001 9.176C2.27401 8.916 1.68601 7.664 1.50201 7.272C1.46201 7.188 1.44001 7.1 1.44001 7.004C1.44001 6.764 1.66001 6.68 1.78401 6.68C1.93401 6.68 2.08801 6.794 2.08801 6.936C2.08801 7.026 2.03801 7.082 1.96801 7.082C1.79801 7.082 1.80801 6.938 1.84201 6.846C1.73601 6.894 1.67601 6.978 1.69201 7.066C1.62638 7.07702 1.56682 7.11105 1.52401 7.162C1.56401 7.214 1.61601 7.254 1.69201 7.256C1.65801 7.394 1.75201 7.452 1.84201 7.484C1.81401 7.384 1.79401 7.266 1.96801 7.266C2.09401 7.266 2.19201 7.246 2.25001 7.162L2.26401 7.702C2.27201 7.864 2.04801 7.862 1.90401 7.812C1.95801 7.998 2.06801 8.1 2.32401 8.074C2.28479 8.08908 2.25132 8.11613 2.22834 8.15132C2.20536 8.1865 2.19405 8.22803 2.19601 8.27C2.19601 8.422 2.32001 8.59 2.40001 8.64L2.44001 7.06V7.058Z" fill="#FFEC2D"/>
    <path d="M2.40006 1.46C2.40006 1.46 2.59206 1.296 2.65806 1.378C2.76206 1.508 2.33406 2.158 2.33406 2.386C2.33406 2.762 2.58606 2.864 2.89406 2.916C3.10206 2.952 3.44006 2.902 3.44006 2.902C3.37606 2.816 3.33406 2.79 3.22806 2.784C3.34806 2.724 3.46806 2.588 3.46806 2.378C3.46806 2.056 3.33606 1.922 3.33606 1.558C3.33606 1.36 3.50006 1.1 3.50006 1.1C3.20806 1.13 3.06406 1.4 3.14606 1.616C3.12355 1.62048 3.10029 1.61935 3.07832 1.61273C3.05635 1.6061 3.03634 1.59417 3.02006 1.578C3.00006 1.638 3.03206 1.708 3.07806 1.768C3.04206 1.788 3.01406 1.776 2.95806 1.764C2.96206 1.824 2.99806 1.892 3.09006 1.954C2.82606 1.886 2.66606 2.068 2.66606 2.26C2.66606 2.406 2.76606 2.51 2.86606 2.51C2.89806 2.51 2.94606 2.496 2.97206 2.476C2.99206 2.516 2.98006 2.57 2.96206 2.61C3.03406 2.59 3.08206 2.546 3.04806 2.456C3.10406 2.452 3.14806 2.432 3.17806 2.396C3.14806 2.356 3.10206 2.336 3.04806 2.336C3.08806 2.252 3.04206 2.206 2.97606 2.168C2.97606 2.168 3.01806 2.336 2.91206 2.336C2.86406 2.336 2.82006 2.322 2.82006 2.25C2.82006 2.188 2.87406 2.102 3.00006 2.108C3.12406 2.114 3.22606 2.194 3.22606 2.394C3.22606 2.578 3.07606 2.67 2.88006 2.674C2.70406 2.682 2.57006 2.586 2.57006 2.404C2.57006 2.16 2.92006 1.608 2.92006 1.392C2.92006 1.23 2.77606 1.138 2.63206 1.138C2.44806 1.138 2.29206 1.322 2.29206 1.322L2.40006 1.458V1.46Z" fill="#FFEC2D"/>
    <path d="M2.36004 5.842C2.36004 6.248 2.72404 6.456 3.01004 6.456C3.39404 6.456 3.60004 6.226 3.60004 5.924C3.60004 5.754 3.56804 5.646 3.49004 5.484L2.60604 3.65C2.57401 3.57285 2.56032 3.48933 2.56604 3.406C2.56604 3.242 2.72604 3.108 2.89204 3.106C3.04404 3.1 3.21204 3.246 3.21204 3.412C3.21204 3.614 3.10604 3.704 2.99804 3.704C2.86604 3.704 2.81404 3.65 2.81404 3.556C2.81404 3.492 2.84404 3.464 2.89004 3.464C3.00404 3.464 2.97004 3.616 2.97004 3.616C2.98509 3.61321 2.99934 3.60714 3.01178 3.59821C3.02421 3.58928 3.03452 3.57772 3.04197 3.56435C3.04943 3.55098 3.05383 3.53612 3.05488 3.52085C3.05593 3.50558 3.05359 3.49026 3.04804 3.476C3.09085 3.4664 3.12942 3.44325 3.15804 3.41C3.12804 3.38 3.09204 3.358 3.04804 3.35C3.07404 3.262 3.03804 3.22 2.96204 3.2C2.97571 3.23006 2.97922 3.26376 2.97204 3.296C2.85204 3.26 2.66604 3.316 2.66604 3.524C2.66604 3.732 2.81004 3.906 3.08004 3.864C3.01604 3.894 2.98404 3.956 2.97604 4.026C3.02604 4.006 3.08004 4.006 3.08004 4.006C3.04804 4.06 3.00404 4.106 3.00604 4.218C3.05604 4.194 3.10404 4.152 3.16604 4.178C3.06604 4.378 3.19004 4.65 3.50604 4.714C3.39004 4.578 3.33404 4.434 3.33404 4.288C3.33404 3.818 3.46404 3.74 3.46404 3.412C3.46198 3.33593 3.44186 3.26144 3.40535 3.19467C3.36884 3.1279 3.31697 3.07077 3.25404 3.028V3.034C3.29274 3.02605 3.32932 3.01 3.36138 2.9869C3.39344 2.96381 3.42024 2.93419 3.44004 2.9C3.21724 2.83859 2.98172 2.84067 2.76004 2.906C2.68589 2.91649 2.61504 2.9435 2.55273 2.98504C2.49042 3.02658 2.43824 3.08159 2.40004 3.146C2.36011 3.23711 2.33949 3.33552 2.33949 3.435C2.33949 3.53448 2.36011 3.63288 2.40004 3.724C2.52604 3.984 3.11404 5.236 3.29804 5.628C3.33804 5.712 3.36004 5.8 3.36004 5.896C3.36004 6.136 3.14004 6.22 3.01604 6.22C2.86604 6.22 2.71204 6.106 2.71204 5.964C2.71204 5.874 2.76204 5.818 2.83204 5.818C3.00204 5.818 2.99204 5.962 2.95804 6.054C3.06404 6.006 3.12404 5.922 3.10804 5.834C3.17367 5.82298 3.23322 5.78894 3.27604 5.738C3.23604 5.686 3.18404 5.646 3.10804 5.644C3.14204 5.506 3.04804 5.448 2.95804 5.416C2.98604 5.516 3.00604 5.634 2.83204 5.634C2.70604 5.634 2.60804 5.654 2.55004 5.738L2.53604 5.198C2.52804 5.036 2.75204 5.038 2.89604 5.088C2.84204 4.902 2.73204 4.8 2.47604 4.826C2.51526 4.81092 2.54873 4.78386 2.57171 4.74868C2.59468 4.7135 2.606 4.67197 2.60404 4.63C2.60404 4.478 2.48004 4.31 2.40004 4.26L2.36004 5.84V5.842Z" fill="#FFEC2D"/>
    <path d="M2.36004 7.058C2.36004 6.652 2.72404 6.444 3.01004 6.444C3.39404 6.444 3.60004 6.674 3.60004 6.976C3.60004 7.146 3.56804 7.254 3.49004 7.416L2.60604 9.25C2.57401 9.32715 2.56032 9.41067 2.56604 9.494C2.56604 9.658 2.72604 9.792 2.89204 9.794C3.04404 9.8 3.21204 9.654 3.21204 9.488C3.21204 9.286 3.10604 9.196 2.99804 9.196C2.86604 9.196 2.81404 9.25 2.81404 9.344C2.81404 9.408 2.84404 9.436 2.89004 9.436C3.00404 9.436 2.97004 9.284 2.97004 9.284C2.98509 9.28678 2.99934 9.29286 3.01178 9.30179C3.02421 9.31071 3.03452 9.32228 3.04197 9.33565C3.04943 9.34902 3.05383 9.36388 3.05488 9.37915C3.05593 9.39442 3.05359 9.40974 3.04804 9.424C3.09085 9.4336 3.12942 9.45674 3.15804 9.49C3.12804 9.52 3.09204 9.542 3.04804 9.55C3.07404 9.638 3.03804 9.68 2.96204 9.7C2.97571 9.66994 2.97922 9.63624 2.97204 9.604C2.85204 9.64 2.66604 9.584 2.66604 9.376C2.66604 9.168 2.81004 8.994 3.08004 9.036C3.01604 9.006 2.98404 8.944 2.97604 8.874C3.02604 8.894 3.08004 8.894 3.08004 8.894C3.04804 8.84 3.00404 8.794 3.00604 8.682C3.05604 8.706 3.10404 8.748 3.16604 8.722C3.06604 8.522 3.19004 8.25 3.50604 8.186C3.39004 8.322 3.33404 8.466 3.33404 8.612C3.33404 9.082 3.46404 9.16 3.46404 9.488C3.46198 9.56407 3.44186 9.63856 3.40535 9.70533C3.36884 9.7721 3.31697 9.82922 3.25404 9.872V9.866C3.29274 9.87395 3.32932 9.89 3.36138 9.91309C3.39344 9.93619 3.42024 9.96581 3.44004 10C3.21724 10.0614 2.98172 10.0593 2.76004 9.994C2.68589 9.98351 2.61504 9.9565 2.55273 9.91496C2.49042 9.87342 2.43824 9.81841 2.40004 9.754C2.36011 9.66288 2.33949 9.56448 2.33949 9.465C2.33949 9.36552 2.36011 9.26712 2.40004 9.176C2.52604 8.916 3.11404 7.664 3.29804 7.272C3.33804 7.188 3.36004 7.1 3.36004 7.004C3.36004 6.764 3.14004 6.68 3.01604 6.68C2.86604 6.68 2.71204 6.794 2.71204 6.936C2.71204 7.026 2.76204 7.082 2.83204 7.082C3.00204 7.082 2.99204 6.938 2.95804 6.846C3.06404 6.894 3.12404 6.978 3.10804 7.066C3.17367 7.07702 3.23322 7.11105 3.27604 7.162C3.23604 7.214 3.18404 7.254 3.10804 7.256C3.14204 7.394 3.04804 7.452 2.95804 7.484C2.98604 7.384 3.00604 7.266 2.83204 7.266C2.70604 7.266 2.60804 7.246 2.55004 7.162L2.53604 7.702C2.52804 7.864 2.75204 7.862 2.89604 7.812C2.84204 7.998 2.73204 8.1 2.47604 8.074C2.51526 8.08908 2.54873 8.11613 2.57171 8.15132C2.59468 8.1865 2.606 8.22803 2.60404 8.27C2.60404 8.422 2.48004 8.59 2.40004 8.64L2.36004 7.06V7.058Z" fill="#FFEC2D"/>
    <path d="M2.39999 18.54C2.39999 18.54 2.20799 18.704 2.14199 18.622C2.03799 18.492 2.46599 17.842 2.46599 17.614C2.46599 17.238 2.21399 17.136 1.90599 17.084C1.69799 17.048 1.35999 17.098 1.35999 17.098C1.42399 17.184 1.46599 17.21 1.57199 17.216C1.45199 17.276 1.33199 17.412 1.33199 17.622C1.33199 17.944 1.46399 18.078 1.46399 18.442C1.46399 18.64 1.29999 18.9 1.29999 18.9C1.59199 18.87 1.73599 18.6 1.65399 18.384C1.6765 18.3795 1.69976 18.3806 1.72173 18.3873C1.7437 18.3939 1.76371 18.4058 1.77999 18.422C1.79999 18.362 1.76799 18.292 1.72199 18.232C1.75799 18.212 1.78599 18.224 1.84199 18.236C1.83799 18.176 1.80199 18.108 1.70999 18.046C1.97399 18.114 2.13399 17.932 2.13399 17.74C2.13399 17.594 2.03399 17.49 1.93399 17.49C1.90199 17.49 1.85399 17.504 1.82799 17.524C1.80799 17.484 1.81999 17.43 1.83799 17.39C1.76599 17.41 1.71799 17.454 1.75199 17.544C1.69599 17.548 1.65199 17.568 1.62199 17.604C1.65199 17.644 1.69799 17.664 1.75199 17.664C1.71199 17.748 1.75799 17.794 1.82399 17.832C1.82399 17.832 1.78199 17.664 1.88799 17.664C1.93599 17.664 1.97999 17.678 1.97999 17.75C1.97999 17.812 1.92599 17.898 1.79999 17.892C1.67599 17.886 1.57399 17.806 1.57399 17.606C1.57399 17.422 1.72399 17.33 1.91999 17.326C2.09599 17.318 2.22999 17.414 2.22999 17.596C2.22999 17.84 1.87999 18.392 1.87999 18.608C1.87999 18.77 2.02399 18.862 2.16799 18.862C2.35199 18.862 2.50799 18.678 2.50799 18.678L2.39999 18.542V18.54Z" fill="#FFEC2D"/>
    <path d="M2.44001 14.158C2.44001 13.752 2.07601 13.544 1.79001 13.544C1.40601 13.544 1.20001 13.774 1.20001 14.076C1.20001 14.246 1.23201 14.354 1.31001 14.516L2.19401 16.35C2.22604 16.4271 2.23973 16.5107 2.23401 16.594C2.23401 16.758 2.07401 16.892 1.90801 16.894C1.75601 16.9 1.58801 16.754 1.58801 16.588C1.58801 16.386 1.69401 16.296 1.80201 16.296C1.93401 16.296 1.98601 16.35 1.98601 16.444C1.98601 16.508 1.95601 16.536 1.91001 16.536C1.79601 16.536 1.83001 16.384 1.83001 16.384C1.81496 16.3868 1.80071 16.3929 1.78827 16.4018C1.77584 16.4107 1.76552 16.4223 1.75807 16.4356C1.75062 16.449 1.74622 16.4639 1.74517 16.4791C1.74412 16.4944 1.74646 16.5097 1.75201 16.524C1.7092 16.5336 1.67063 16.5567 1.64201 16.59C1.67201 16.62 1.70801 16.642 1.75201 16.65C1.72601 16.738 1.76201 16.78 1.83801 16.8C1.82434 16.7699 1.82083 16.7362 1.82801 16.704C1.94801 16.74 2.13401 16.684 2.13401 16.476C2.13401 16.268 1.99001 16.094 1.72001 16.136C1.78401 16.106 1.81601 16.044 1.82401 15.974C1.77401 15.994 1.72001 15.994 1.72001 15.994C1.75201 15.94 1.79601 15.894 1.79401 15.782C1.74401 15.806 1.69601 15.848 1.63401 15.822C1.73401 15.622 1.61001 15.35 1.29401 15.286C1.41001 15.422 1.46601 15.566 1.46601 15.712C1.46601 16.182 1.33601 16.26 1.33601 16.588C1.33807 16.6641 1.35819 16.7386 1.3947 16.8053C1.43121 16.8721 1.48308 16.9292 1.54601 16.972V16.966C1.50731 16.9739 1.47073 16.99 1.43867 17.0131C1.40661 17.0362 1.37981 17.0658 1.36001 17.1C1.58281 17.1614 1.81833 17.1593 2.04001 17.094C2.11416 17.0835 2.18501 17.0565 2.24732 17.015C2.30963 16.9734 2.36181 16.9184 2.40001 16.854C2.43994 16.7629 2.46056 16.6645 2.46056 16.565C2.46056 16.4655 2.43994 16.3671 2.40001 16.276C2.27401 16.016 1.68601 14.764 1.50201 14.372C1.46201 14.288 1.44001 14.2 1.44001 14.104C1.44001 13.864 1.66001 13.78 1.78401 13.78C1.93401 13.78 2.08801 13.894 2.08801 14.036C2.08801 14.126 2.03801 14.182 1.96801 14.182C1.79801 14.182 1.80801 14.038 1.84201 13.946C1.73601 13.994 1.67601 14.078 1.69201 14.166C1.62638 14.177 1.56682 14.2111 1.52401 14.262C1.56401 14.314 1.61601 14.354 1.69201 14.356C1.65801 14.494 1.75201 14.552 1.84201 14.584C1.81401 14.484 1.79401 14.366 1.96801 14.366C2.09401 14.366 2.19201 14.346 2.25001 14.262L2.26401 14.802C2.27201 14.964 2.04801 14.962 1.90401 14.912C1.95801 15.098 2.06801 15.2 2.32401 15.174C2.28479 15.1891 2.25132 15.2161 2.22834 15.2513C2.20536 15.2865 2.19405 15.328 2.19601 15.37C2.19601 15.522 2.32001 15.69 2.40001 15.74L2.44001 14.16V14.158Z" fill="#FFEC2D"/>
    <path d="M2.44001 12.942C2.44001 13.348 2.07601 13.556 1.79001 13.556C1.40601 13.556 1.20001 13.326 1.20001 13.024C1.20001 12.854 1.23201 12.746 1.31001 12.584L2.19401 10.75C2.22604 10.6729 2.23973 10.5893 2.23401 10.506C2.23401 10.342 2.07401 10.208 1.90801 10.206C1.75601 10.2 1.58801 10.346 1.58801 10.512C1.58801 10.714 1.69401 10.804 1.80201 10.804C1.93401 10.804 1.98601 10.75 1.98601 10.656C1.98601 10.592 1.95601 10.564 1.91001 10.564C1.79601 10.564 1.83001 10.716 1.83001 10.716C1.81496 10.7132 1.80071 10.7071 1.78827 10.6982C1.77584 10.6893 1.76552 10.6777 1.75807 10.6644C1.75062 10.651 1.74622 10.6361 1.74517 10.6209C1.74412 10.6056 1.74646 10.5903 1.75201 10.576C1.7092 10.5664 1.67063 10.5433 1.64201 10.51C1.67201 10.48 1.70801 10.458 1.75201 10.45C1.72601 10.362 1.76201 10.32 1.83801 10.3C1.82434 10.3301 1.82083 10.3638 1.82801 10.396C1.94801 10.36 2.13401 10.416 2.13401 10.624C2.13401 10.832 1.99001 11.006 1.72001 10.964C1.78401 10.994 1.81601 11.056 1.82401 11.126C1.77401 11.106 1.72001 11.106 1.72001 11.106C1.75201 11.16 1.79601 11.206 1.79401 11.318C1.74401 11.294 1.69601 11.252 1.63401 11.278C1.73401 11.478 1.61001 11.75 1.29401 11.814C1.41001 11.678 1.46601 11.534 1.46601 11.388C1.46601 10.918 1.33601 10.84 1.33601 10.512C1.33807 10.4359 1.35819 10.3614 1.3947 10.2947C1.43121 10.2279 1.48308 10.1708 1.54601 10.128V10.134C1.50731 10.1261 1.47073 10.11 1.43867 10.0869C1.40661 10.0638 1.37981 10.0342 1.36001 10C1.58281 9.93859 1.81833 9.94067 2.04001 10.006C2.11416 10.0165 2.18501 10.0435 2.24732 10.085C2.30963 10.1266 2.36181 10.1816 2.40001 10.246C2.43994 10.3371 2.46056 10.4355 2.46056 10.535C2.46056 10.6345 2.43994 10.7329 2.40001 10.824C2.27401 11.084 1.68601 12.336 1.50201 12.728C1.46201 12.812 1.44001 12.9 1.44001 12.996C1.44001 13.236 1.66001 13.32 1.78401 13.32C1.93401 13.32 2.08801 13.206 2.08801 13.064C2.08801 12.974 2.03801 12.918 1.96801 12.918C1.79801 12.918 1.80801 13.062 1.84201 13.154C1.73601 13.106 1.67601 13.022 1.69201 12.934C1.62638 12.923 1.56682 12.8889 1.52401 12.838C1.56401 12.786 1.61601 12.746 1.69201 12.744C1.65801 12.606 1.75201 12.548 1.84201 12.516C1.81401 12.616 1.79401 12.734 1.96801 12.734C2.09401 12.734 2.19201 12.754 2.25001 12.838L2.26401 12.298C2.27201 12.136 2.04801 12.138 1.90401 12.188C1.95801 12.002 2.06801 11.9 2.32401 11.926C2.28479 11.9109 2.25132 11.8839 2.22834 11.8487C2.20536 11.8135 2.19405 11.772 2.19601 11.73C2.19601 11.578 2.32001 11.41 2.40001 11.36L2.44001 12.94V12.942Z" fill="#FFEC2D"/>
    <path d="M2.40006 18.54C2.40006 18.54 2.59206 18.704 2.65806 18.622C2.76206 18.492 2.33406 17.842 2.33406 17.614C2.33406 17.238 2.58606 17.136 2.89406 17.084C3.10206 17.048 3.44006 17.098 3.44006 17.098C3.37606 17.184 3.33406 17.21 3.22806 17.216C3.34806 17.276 3.46806 17.412 3.46806 17.622C3.46806 17.944 3.33606 18.078 3.33606 18.442C3.33606 18.64 3.50006 18.9 3.50006 18.9C3.20806 18.87 3.06406 18.6 3.14606 18.384C3.12355 18.3795 3.10029 18.3806 3.07832 18.3873C3.05635 18.3939 3.03634 18.4058 3.02006 18.422C3.00006 18.362 3.03206 18.292 3.07806 18.232C3.04206 18.212 3.01406 18.224 2.95806 18.236C2.96206 18.176 2.99806 18.108 3.09006 18.046C2.82606 18.114 2.66606 17.932 2.66606 17.74C2.66606 17.594 2.76606 17.49 2.86606 17.49C2.89806 17.49 2.94606 17.504 2.97206 17.524C2.99206 17.484 2.98006 17.43 2.96206 17.39C3.03406 17.41 3.08206 17.454 3.04806 17.544C3.10406 17.548 3.14806 17.568 3.17806 17.604C3.14806 17.644 3.10206 17.664 3.04806 17.664C3.08806 17.748 3.04206 17.794 2.97606 17.832C2.97606 17.832 3.01806 17.664 2.91206 17.664C2.86406 17.664 2.82006 17.678 2.82006 17.75C2.82006 17.812 2.87406 17.898 3.00006 17.892C3.12406 17.886 3.22606 17.806 3.22606 17.606C3.22606 17.422 3.07606 17.33 2.88006 17.326C2.70406 17.318 2.57006 17.414 2.57006 17.596C2.57006 17.84 2.92006 18.392 2.92006 18.608C2.92006 18.77 2.77606 18.862 2.63206 18.862C2.44806 18.862 2.29206 18.678 2.29206 18.678L2.40006 18.542V18.54Z" fill="#FFEC2D"/>
    <path d="M2.36004 14.158C2.36004 13.752 2.72404 13.544 3.01004 13.544C3.39404 13.544 3.60004 13.774 3.60004 14.076C3.60004 14.246 3.56804 14.354 3.49004 14.516L2.60604 16.35C2.57401 16.4271 2.56032 16.5107 2.56604 16.594C2.56604 16.758 2.72604 16.892 2.89204 16.894C3.04404 16.9 3.21204 16.754 3.21204 16.588C3.21204 16.386 3.10604 16.296 2.99804 16.296C2.86604 16.296 2.81404 16.35 2.81404 16.444C2.81404 16.508 2.84404 16.536 2.89004 16.536C3.00404 16.536 2.97004 16.384 2.97004 16.384C2.98509 16.3868 2.99934 16.3929 3.01178 16.4018C3.02421 16.4107 3.03452 16.4223 3.04197 16.4356C3.04943 16.449 3.05383 16.4639 3.05488 16.4791C3.05593 16.4944 3.05359 16.5097 3.04804 16.524C3.09085 16.5336 3.12942 16.5567 3.15804 16.59C3.12804 16.62 3.09204 16.642 3.04804 16.65C3.07404 16.738 3.03804 16.78 2.96204 16.8C2.97571 16.7699 2.97922 16.7362 2.97204 16.704C2.85204 16.74 2.66604 16.684 2.66604 16.476C2.66604 16.268 2.81004 16.094 3.08004 16.136C3.01604 16.106 2.98404 16.044 2.97604 15.974C3.02604 15.994 3.08004 15.994 3.08004 15.994C3.04804 15.94 3.00404 15.894 3.00604 15.782C3.05604 15.806 3.10404 15.848 3.16604 15.822C3.06604 15.622 3.19004 15.35 3.50604 15.286C3.39004 15.422 3.33404 15.566 3.33404 15.712C3.33404 16.182 3.46404 16.26 3.46404 16.588C3.46198 16.6641 3.44186 16.7386 3.40535 16.8053C3.36884 16.8721 3.31697 16.9292 3.25404 16.972V16.966C3.29274 16.9739 3.32932 16.99 3.36138 17.0131C3.39344 17.0362 3.42024 17.0658 3.44004 17.1C3.21724 17.1614 2.98172 17.1593 2.76004 17.094C2.68589 17.0835 2.61504 17.0565 2.55273 17.015C2.49042 16.9734 2.43824 16.9184 2.40004 16.854C2.36011 16.7629 2.33949 16.6645 2.33949 16.565C2.33949 16.4655 2.36011 16.3671 2.40004 16.276C2.52604 16.016 3.11404 14.764 3.29804 14.372C3.33804 14.288 3.36004 14.2 3.36004 14.104C3.36004 13.864 3.14004 13.78 3.01604 13.78C2.86604 13.78 2.71204 13.894 2.71204 14.036C2.71204 14.126 2.76204 14.182 2.83204 14.182C3.00204 14.182 2.99204 14.038 2.95804 13.946C3.06404 13.994 3.12404 14.078 3.10804 14.166C3.17367 14.177 3.23322 14.2111 3.27604 14.262C3.23604 14.314 3.18404 14.354 3.10804 14.356C3.14204 14.494 3.04804 14.552 2.95804 14.584C2.98604 14.484 3.00604 14.366 2.83204 14.366C2.70604 14.366 2.60804 14.346 2.55004 14.262L2.53604 14.802C2.52804 14.964 2.75204 14.962 2.89604 14.912C2.84204 15.098 2.73204 15.2 2.47604 15.174C2.51526 15.1891 2.54873 15.2161 2.57171 15.2513C2.59468 15.2865 2.606 15.328 2.60404 15.37C2.60404 15.522 2.48004 15.69 2.40004 15.74L2.36004 14.16V14.158Z" fill="#FFEC2D"/>
    <path d="M2.36004 12.942C2.36004 13.348 2.72404 13.556 3.01004 13.556C3.39404 13.556 3.60004 13.326 3.60004 13.024C3.60004 12.854 3.56804 12.746 3.49004 12.584L2.60604 10.75C2.57401 10.6729 2.56032 10.5893 2.56604 10.506C2.56604 10.342 2.72604 10.208 2.89204 10.206C3.04404 10.2 3.21204 10.346 3.21204 10.512C3.21204 10.714 3.10604 10.804 2.99804 10.804C2.86604 10.804 2.81404 10.75 2.81404 10.656C2.81404 10.592 2.84404 10.564 2.89004 10.564C3.00404 10.564 2.97004 10.716 2.97004 10.716C2.98509 10.7132 2.99934 10.7071 3.01178 10.6982C3.02421 10.6893 3.03452 10.6777 3.04197 10.6644C3.04943 10.651 3.05383 10.6361 3.05488 10.6209C3.05593 10.6056 3.05359 10.5903 3.04804 10.576C3.09085 10.5664 3.12942 10.5433 3.15804 10.51C3.12804 10.48 3.09204 10.458 3.04804 10.45C3.07404 10.362 3.03804 10.32 2.96204 10.3C2.97571 10.3301 2.97922 10.3638 2.97204 10.396C2.85204 10.36 2.66604 10.416 2.66604 10.624C2.66604 10.832 2.81004 11.006 3.08004 10.964C3.01604 10.994 2.98404 11.056 2.97604 11.126C3.02604 11.106 3.08004 11.106 3.08004 11.106C3.04804 11.16 3.00404 11.206 3.00604 11.318C3.05604 11.294 3.10404 11.252 3.16604 11.278C3.06604 11.478 3.19004 11.75 3.50604 11.814C3.39004 11.678 3.33404 11.534 3.33404 11.388C3.33404 10.918 3.46404 10.84 3.46404 10.512C3.46198 10.4359 3.44186 10.3614 3.40535 10.2947C3.36884 10.2279 3.31697 10.1708 3.25404 10.128V10.134C3.29274 10.1261 3.32932 10.11 3.36138 10.0869C3.39344 10.0638 3.42024 10.0342 3.44004 10C3.21724 9.93859 2.98172 9.94067 2.76004 10.006C2.68589 10.0165 2.61504 10.0435 2.55273 10.085C2.49042 10.1266 2.43824 10.1816 2.40004 10.246C2.36011 10.3371 2.33949 10.4355 2.33949 10.535C2.33949 10.6345 2.36011 10.7329 2.40004 10.824C2.52604 11.084 3.11404 12.336 3.29804 12.728C3.33804 12.812 3.36004 12.9 3.36004 12.996C3.36004 13.236 3.14004 13.32 3.01604 13.32C2.86604 13.32 2.71204 13.206 2.71204 13.064C2.71204 12.974 2.76204 12.918 2.83204 12.918C3.00204 12.918 2.99204 13.062 2.95804 13.154C3.06404 13.106 3.12404 13.022 3.10804 12.934C3.17367 12.923 3.23322 12.8889 3.27604 12.838C3.23604 12.786 3.18404 12.746 3.10804 12.744C3.14204 12.606 3.04804 12.548 2.95804 12.516C2.98604 12.616 3.00604 12.734 2.83204 12.734C2.70604 12.734 2.60804 12.754 2.55004 12.838L2.53604 12.298C2.52804 12.136 2.75204 12.138 2.89604 12.188C2.84204 12.002 2.73204 11.9 2.47604 11.926C2.51526 11.9109 2.54873 11.8839 2.57171 11.8487C2.59468 11.8135 2.606 11.772 2.60404 11.73C2.60404 11.578 2.48004 11.41 2.40004 11.36L2.36004 12.94V12.942Z" fill="#FFEC2D"/>
  </g>
  <defs>
    <clipPath id="clip0_67_1861">
      <rect width="26.6667" height="20" fill="white"/>
    </clipPath>
  </defs>
</svg>